<svg width="100" height="31" viewBox="0 0 100 31" fill="none" xmlns="http://www.w3.org/2000/svg">
<path d="M10.8574 0.102373C10.4959 0.102373 10.2996 0.0409493 10.0413 0.0102373C7.72727 5.82504 2.90289 16.3592 0 22.6245C0.423554 22.5631 0.816116 22.43 1.43595 22.43C2.05578 22.43 2.38636 22.5528 2.76859 22.6245C3.84297 18.5193 5.15496 15.6426 5.80578 14.1582H14.0599C14.876 15.9395 16.2087 18.7445 17.3554 22.6245C17.9752 22.5323 18.595 22.43 19.4421 22.43C20.2583 22.43 20.8058 22.5221 21.3636 22.6245C21.2913 22.5016 14.0909 6.78734 11.5806 0C11.312 0.0716612 11.1467 0.102373 10.8574 0.102373ZM6.45661 12.551L9.88636 4.53513L13.4091 12.551H6.45661Z" fill="#FFFEF2"/>
<path d="M31.188 6.75663C25.8368 6.75663 23.3574 10.5035 23.3574 14.967C23.3574 19.9525 26.3946 23.0544 31.3533 23.0544C33.9979 23.0544 35.9917 22.3071 37.4173 20.9456C37.4483 20.4337 37.4483 19.9116 37.6446 19.0107L37.252 18.9186C36.7562 19.5942 35.2582 21.5291 32.0661 21.5291C31.126 21.5291 28.9979 21.4369 27.5 19.0107C26.6219 17.5263 26.6219 15.6836 26.6219 14.7827H38.3264C38.3574 13.0321 38.4504 6.75663 31.188 6.75663ZM26.6425 13.4211C26.9318 10.1861 28.3058 8.05677 31.1467 8.05677C35.062 8.05677 35.062 12.3564 35.062 13.4211H26.6425Z" fill="#FFFEF2"/>
<path d="M47.3966 13.288C46.2602 13.0014 44.3284 12.3155 44.3284 10.4421C44.3284 9.04978 45.3718 8.01582 47.3553 8.01582C47.8821 8.01582 48.7912 8.08748 49.473 8.56863C50.4234 9.21358 50.6197 10.0223 50.7437 10.5035H51.1672C51.2705 9.40809 51.4978 8.63005 51.8181 7.79059C51.0639 7.41181 49.7623 6.72591 47.5102 6.72591C43.0061 6.72591 41.8594 9.70497 41.8594 11.5375C41.8594 14.3834 44.1734 15.3867 45.5784 15.8371C48.9978 16.9325 50.1135 17.2908 50.1135 19.1335C50.1135 20.9763 48.5123 21.785 46.8181 21.785C46.1053 21.785 45.2478 21.6519 44.442 21.1708C43.2334 20.4542 42.9131 19.584 42.6755 19.0312L42.2829 19.1233C42.221 19.543 41.9627 20.9353 41.5288 21.7133C41.8904 21.9693 43.7086 23.0647 46.3532 23.0647C50.8883 23.0647 52.6238 20.3211 52.6238 17.8641C52.6445 14.6496 50.2995 14.0354 47.3966 13.288Z" fill="#FFFEF2"/>
<path d="M64.2251 6.72591C59.3284 6.72591 55.9297 9.85853 55.9297 14.8953C55.9297 21.5188 60.7541 23.0749 64.2251 23.0749C69.1735 23.0749 72.7685 19.8399 72.7685 14.7008C72.7685 10.7697 70.4235 6.72591 64.2251 6.72591ZM64.2561 21.785C61.2499 21.785 59.2665 19.2973 59.2665 14.8032C59.2665 13.8306 59.2665 8.01582 64.4214 8.01582C68.6673 8.01582 69.4421 12.3155 69.4421 14.8339C69.4421 19.1028 67.3863 21.785 64.2561 21.785Z" fill="#FFFEF2"/>
<path d="M85.4545 6.69521C81.8388 6.69521 80.4338 8.95765 79.9173 9.79711C79.9173 9.12145 79.9173 8.63006 80.0516 6.859C79.597 6.95114 79.0392 7.05351 78.4504 7.05351C77.8305 7.05351 77.3037 6.96138 76.8491 6.859C76.9524 11.5477 77.0144 15.5198 77.0144 18.4681C77.0144 22.6757 76.9214 26.9037 76.6528 31.101C77.1694 30.9679 77.5929 30.9065 78.409 30.9065C79.1942 30.9065 79.6177 30.9679 80.1032 31.101C79.907 28.1322 79.938 25.1838 79.938 20.1163C80.4648 21.4472 82.19 23.1159 85.2582 23.1159C89.5247 23.1159 92.6962 19.9116 92.6962 14.8134C92.7066 9.04979 88.7189 6.69521 85.4545 6.69521ZM84.6797 21.4677C83.1818 21.4677 82.0661 20.8841 81.2293 19.8809C80.5371 19.0824 79.8863 18.0074 79.8863 15.1615C79.8863 11.9572 80.5681 10.8004 81.2293 9.99162C81.9834 9.04979 83.1198 8.3127 84.8863 8.3127C87.0041 8.3127 89.3491 10.0838 89.3491 14.967C89.3388 16.0009 89.3388 21.4677 84.6797 21.4677Z" fill="#FFFEF2"/>
<path d="M35.8267 2.72312H26.8081V3.73662H35.8267V2.72312Z" fill="#FFFEF2"/>
<path d="M97.4587 18.7241C96.3016 18.7241 95.3306 19.6454 95.3306 20.8432C95.3306 22.0307 96.281 22.9623 97.469 22.9623C98.6467 22.9623 99.5971 22.0307 99.5971 20.8432C99.5868 19.6659 98.657 18.7241 97.4587 18.7241ZM97.4587 22.5835C96.4669 22.5835 95.7335 21.8362 95.7335 20.8432C95.7335 19.8706 96.4773 19.1028 97.4587 19.1028C98.4814 19.1028 99.1942 19.8911 99.1942 20.8432C99.1942 21.8464 98.4504 22.5835 97.4587 22.5835Z" fill="#FFFEF2"/>
<path d="M98.3782 20.1675C98.3782 19.5942 97.7687 19.6045 97.1695 19.6045C96.8906 19.6045 96.7666 19.6045 96.5806 19.5942C96.591 19.8502 96.6116 20.147 96.6116 20.7408C96.6116 21.4267 96.6013 21.7236 96.5703 21.9795C96.6426 21.9693 96.6736 21.9591 96.7976 21.9591C96.9216 21.9591 96.9629 21.9795 97.0662 21.9795C97.0352 21.4574 97.0352 21.181 97.0352 20.8125H97.1178C97.3451 21.0786 97.6654 21.4062 98.0682 21.9795C98.2025 21.9693 98.2852 21.9591 98.3678 21.9591C98.4608 21.9591 98.5331 21.9795 98.6158 21.9795L98.6364 21.9386C98.4815 21.785 97.7583 20.9763 97.593 20.7613C97.8306 20.751 98.3782 20.6691 98.3782 20.1675ZM97.0352 20.6589C97.0352 20.3825 97.0352 20.0959 97.0455 19.7785C97.4381 19.7785 97.9133 19.7785 97.9133 20.2085C97.9133 20.6589 97.2935 20.6589 97.0352 20.6589Z" fill="#FFFEF2"/>
</svg>
