<svg width="33" height="32" viewBox="0 0 33 32" fill="none" xmlns="http://www.w3.org/2000/svg">
<g clip-path="url(#clip0_39_46)">
<path d="M22.3221 6.70968C22.3221 9.84523 19.7803 12.3871 16.6447 12.3871C13.5091 12.3871 10.9673 9.84523 10.9673 6.70968C10.9673 3.57412 13.5091 1.03226 16.6447 1.03226C19.7803 1.03226 22.3221 3.57412 22.3221 6.70968Z" stroke="#FFFEF2" stroke-width="1.8"/>
<path d="M30.9854 20.2904C29.0211 26.5639 23.3284 31.071 16.6444 31.071C9.96029 31.071 4.2676 26.5639 2.30334 20.2904C1.98617 19.2774 2.26115 18.3439 2.90992 17.6312C3.57352 16.9021 4.63027 16.4129 5.80566 16.4129H27.4831C28.6585 16.4129 29.7152 16.9021 30.3788 17.6312C31.0275 18.3439 31.3025 19.2774 30.9854 20.2904Z" stroke="#FFFEF2" stroke-width="1.8"/>
</g>
<defs>
<clipPath id="clip0_39_46">
<rect width="32" height="32" fill="white" transform="translate(0.644531)"/>
</clipPath>
</defs>
</svg>
