<svg width="32" height="32" viewBox="0 0 32 32" fill="none" xmlns="http://www.w3.org/2000/svg">
<g clip-path="url(#clip0_39_42)">
<path d="M26.0621 13.3333C26.0621 20.1669 20.5224 25.7067 13.6888 25.7067C6.85516 25.7067 1.31543 20.1669 1.31543 13.3333C1.31543 6.49973 6.85516 0.959999 13.6888 0.959999C20.5224 0.959999 26.0621 6.49973 26.0621 13.3333Z" stroke="#FFFEF2" stroke-width="1.8"/>
<path d="M5.68896 11.7333C5.68896 8.19871 8.55434 5.33334 12.089 5.33334" stroke="#FFFEF2" stroke-width="1.36" stroke-linecap="round" stroke-linejoin="round"/>
<path d="M30.3626 27.432L24.3286 21.398C23.7038 20.7732 22.6907 20.7732 22.0659 21.398C21.4411 22.0229 21.4411 23.0359 22.0659 23.6608L28.0999 29.6948C28.7247 30.3196 29.7378 30.3196 30.3626 29.6948C30.9875 29.0699 30.9875 28.0569 30.3626 27.432Z" fill="#FFFEF2"/>
</g>
<defs>
<clipPath id="clip0_39_42">
<rect width="30.9333" height="32" fill="white" transform="translate(0.355469)"/>
</clipPath>
</defs>
</svg>
