<svg width="31" height="31" viewBox="0 0 31 31" fill="none" xmlns="http://www.w3.org/2000/svg">
<g clip-path="url(#clip0_28_18)">
<path d="M21 6.5C21 9.53757 18.5376 12 15.5 12C12.4624 12 10 9.53757 10 6.5C10 3.46243 12.4624 1 15.5 1C18.5376 1 21 3.46243 21 6.5Z" stroke="#333333" stroke-width="1.8"/>
<path d="M29.3931 19.6563C27.4902 25.7338 21.9754 30.1 15.5002 30.1C9.02499 30.1 3.5102 25.7338 1.60732 19.6563C1.30006 18.675 1.56645 17.7707 2.19494 17.0802C2.83781 16.3739 3.86153 15.9 5.00019 15.9H26.0002C27.1389 15.9 28.1626 16.3739 28.8054 17.0802C29.4339 17.7707 29.7003 18.675 29.3931 19.6563Z" stroke="#333333" stroke-width="1.8"/>
</g>
<defs>
<clipPath id="clip0_28_18">
<rect width="31" height="31" fill="white"/>
</clipPath>
</defs>
</svg>
