<svg width="32" height="32" viewBox="0 0 32 32" fill="none" xmlns="http://www.w3.org/2000/svg">
<g clip-path="url(#clip0_28_8)">
<path d="M16 31C24.2843 31 31 24.2843 31 16C31 7.71573 24.2843 1 16 1C7.71573 1 1 7.71573 1 16C1 24.2843 7.71573 31 16 31Z" stroke="#333333" stroke-width="1.8" stroke-miterlimit="10"/>
<path d="M23.9006 16C23.9006 24.3 20.3006 31 16.0006 31C11.6006 31 8.10059 24.3 8.10059 16C8.10059 7.7 11.7006 1 16.0006 1C20.4006 1 23.9006 7.7 23.9006 16Z" stroke="#333333" stroke-width="1.8" stroke-miterlimit="10"/>
<path d="M2 10.6992H30" stroke="#333333" stroke-width="1.8" stroke-miterlimit="10"/>
<path d="M30 21.3008H2" stroke="#333333" stroke-width="1.8" stroke-miterlimit="10"/>
<path d="M16 31V1" stroke="#333333" stroke-width="1.8" stroke-miterlimit="10"/>
</g>
<defs>
<clipPath id="clip0_28_8">
<rect width="32" height="32" fill="white"/>
</clipPath>
</defs>
</svg>
