<svg width="50" height="50" viewBox="0 0 50 50" fill="none" xmlns="http://www.w3.org/2000/svg">
<path d="M28.1248 33.9584C28.4026 33.9584 28.6457 33.8633 28.854 33.673C29.0623 33.4827 29.1665 33.2306 29.1665 32.9167V17.0834C29.1665 16.7709 29.0623 16.5195 28.854 16.3292C28.6457 16.139 28.4026 16.0431 28.1248 16.0417C28.0554 16.0417 27.8123 16.1459 27.3957 16.3542L19.8436 23.9063C19.67 24.0799 19.5484 24.2536 19.479 24.4272C19.4096 24.6008 19.3748 24.7917 19.3748 25.0001C19.3748 25.2084 19.4096 25.3994 19.479 25.573C19.5484 25.7466 19.67 25.9202 19.8436 26.0938L27.3957 33.6459C27.4998 33.7501 27.6123 33.8286 27.7332 33.8813C27.854 33.9341 27.9846 33.9598 28.1248 33.9584Z" fill="#333333"/>
</svg>
