<svg width="50" height="50" viewBox="0 0 50 50" fill="none" xmlns="http://www.w3.org/2000/svg">
<path d="M21.8752 33.9584C21.5974 33.9584 21.3543 33.8633 21.146 33.673C20.9377 33.4827 20.8335 33.2306 20.8335 32.9167V17.0834C20.8335 16.7709 20.9377 16.5195 21.146 16.3292C21.3543 16.139 21.5974 16.0431 21.8752 16.0417C21.9446 16.0417 22.1877 16.1459 22.6043 16.3542L30.1564 23.9063C30.33 24.0799 30.4516 24.2536 30.521 24.4272C30.5904 24.6008 30.6252 24.7917 30.6252 25.0001C30.6252 25.2084 30.5904 25.3994 30.521 25.573C30.4516 25.7466 30.33 25.9202 30.1564 26.0938L22.6043 33.6459C22.5002 33.7501 22.3877 33.8286 22.2668 33.8813C22.146 33.9341 22.0154 33.9598 21.8752 33.9584Z" fill="#333333"/>
</svg>
